<svg width="128" height="128" viewBox="0 0 128 128" fill="none" xmlns="http://www.w3.org/2000/svg">
<path d="M80.8504 84C79.2895 85.9272 77.3494 87.5133 75.1504 88.66V98.47L94.7804 84.47C95.4914 83.9627 96.0697 83.2916 96.4666 82.5136C96.8634 81.7355 97.0671 80.8734 97.0604 80V62L90.5604 69C89.0169 70.6811 86.9848 71.8354 84.7504 72.3C84.7504 72.59 84.7504 72.89 84.7504 73.19C84.6989 77.1286 83.3254 80.9357 80.8504 84Z" fill="#FAF9F5"/>
<path d="M64.2697 23.0001C63.1346 22.9945 62.0261 23.3442 61.0997 24.0001L34.4297 43.0001H68.7897C70.4757 43.0027 72.0918 43.6736 73.284 44.8658C74.4761 46.0579 75.147 47.6741 75.1497 49.3601V53.3001L90.1497 40.1701L67.4397 24.0001C66.5132 23.3442 65.4048 22.9945 64.2697 23.0001Z" fill="#FAF9F5"/>
<path d="M66.0705 91.7501C63.8893 92.1454 61.6773 92.3462 59.4605 92.3501C56.6984 92.4231 53.9453 92.0032 51.3305 91.1101C50.4386 90.7584 49.6583 90.1722 49.0722 89.4136C48.486 88.6549 48.1157 87.7519 48.0005 86.8001C47.8776 85.8383 48.0139 84.8611 48.3955 83.9697C48.777 83.0783 49.3898 82.3051 50.1705 81.7301L54.0005 78.8601C54.5528 78.4649 54.992 77.9321 55.2744 77.3146C55.5569 76.697 55.6728 76.0163 55.6105 75.3401C55.3828 73.2328 55.6114 71.1012 56.2805 69.0901H42.5605V91.1601L61.1005 104.07C62.0189 104.719 63.1159 105.068 64.2405 105.068C65.3652 105.068 66.4622 104.719 67.3805 104.07L71.3805 101.22V90.3601C69.6521 90.9696 67.876 91.4346 66.0705 91.7501Z" fill="#D6B66B"/>
<path d="M31.2505 69.0901L31.1605 80.3201C31.1512 81.2049 31.3587 82.0786 31.7648 82.8647C32.171 83.6509 32.7634 84.3257 33.4905 84.8301L38.7905 88.5201V69.0901H31.2505Z" fill="#D6B66B"/>
<path d="M65.14 58.5101H42.56V65.3101H58.21C58.705 64.5999 59.2568 63.931 59.86 63.3101C61.2242 61.9393 62.8467 60.8526 64.6335 60.1128C66.4203 59.373 68.3361 58.9948 70.27 59.0001C70.64 59.0001 71.01 59.0001 71.37 59.0001V49.3001C71.3674 48.6166 71.0947 47.9619 70.6115 47.4787C70.1282 46.9954 69.4735 46.7227 68.79 46.7201H32.79C32.3873 46.7156 31.9852 46.7525 31.59 46.8301C31.5233 47.1594 31.4865 47.4941 31.48 47.8301L31.42 54.6501H65.14V58.5101Z" fill="#D6B66B"/>
<path d="M38.7791 58.51H31.3491L31.2891 65.31H38.7791V58.51Z" fill="#D6B66B"/>
<path d="M84.0006 68.68C85.4517 68.363 86.7709 67.6092 87.7806 66.52L97.0406 56.52L99.1206 54.28L101.201 52.04L116.991 35.04C117.898 34.0933 118.398 32.8279 118.381 31.5165C118.364 30.2051 117.833 28.9527 116.902 28.0293C115.971 27.1059 114.714 26.5854 113.402 26.5799C112.091 26.5744 110.83 27.0844 109.891 28L96.5306 39.64L94.9206 41.05L93.3206 42.45L77.5106 56.27C76.4398 57.2678 75.7 58.5694 75.3906 60C77.3837 60.734 79.1925 61.8944 80.6906 63.4C82.1821 64.8846 83.3143 66.6906 84.0006 68.68Z" fill="#179999"/>
<path d="M70.2695 62.8201C67.7337 62.8164 65.276 63.6969 63.3195 65.3101C63.0495 65.5401 62.7795 65.7801 62.5295 66.0301C62.1698 66.3968 61.8357 66.7877 61.5295 67.2001C61.0816 67.7865 60.6993 68.4203 60.3895 69.0901C59.5215 70.91 59.1753 72.9351 59.3895 74.9401C59.5238 76.2785 59.3055 77.6288 58.7564 78.8568C58.2073 80.0848 57.3465 81.1477 56.2595 81.9401L52.3495 84.8001C52.1122 84.9719 51.9263 85.2051 51.8118 85.4747C51.6972 85.7443 51.6584 86.0401 51.6995 86.3301C51.733 86.6158 51.8438 86.8869 52.02 87.1142C52.1963 87.3415 52.4312 87.5165 52.6995 87.6201C56.5395 89.1201 64.8995 89.0301 71.3695 86.3401C72.0144 86.0725 72.6453 85.7721 73.2595 85.4401C73.9163 85.0952 74.5479 84.7042 75.1495 84.2701C76.181 83.5638 77.0983 82.7039 77.8695 81.7201C79.9779 79.1255 81.0881 75.8621 80.9995 72.5201C80.9676 71.8443 80.8637 71.1738 80.6895 70.5201C80.4968 69.7441 80.2008 68.9974 79.8095 68.3001C79.3222 67.4488 78.7124 66.6738 77.9995 66.0001C77.3119 65.3097 76.535 64.7144 75.6895 64.2301C75.5083 64.1203 75.3213 64.0201 75.1295 63.9301C74.9095 63.8201 74.6795 63.7101 74.4495 63.6201C74.1234 63.4809 73.7895 63.3607 73.4495 63.2601L73.2395 63.2001C72.6638 63.036 72.0749 62.9222 71.4795 62.8601H71.3495C70.9995 62.8401 70.6395 62.8201 70.2695 62.8201Z" fill="#FAF9F5"/>
<path d="M107.341 25.16L93.3409 37.38L69.8509 20.59C68.2239 19.4241 66.2725 18.7971 64.2709 18.7971C62.2693 18.7971 60.318 19.4241 58.6909 20.59L31.3109 40.1399C29.883 41.1493 28.7618 42.5336 28.0709 44.1399C27.6871 45.0204 27.4408 45.9547 27.3409 46.91C27.3409 47.2199 27.2909 47.53 27.2909 47.84V49.9199V54.7V56.59V58.4799L27.2309 65.2799V67.1999V69.0899L27.0009 80.2799C26.9791 81.849 27.3435 83.3993 28.062 84.7944C28.7804 86.1895 29.8309 87.3865 31.1209 88.28L38.7909 93.6299L40.6709 94.94L42.5609 96.2599L58.7209 107.53C60.3524 108.655 62.2902 109.252 64.2719 109.239C66.2537 109.227 68.1838 108.606 69.8009 107.46L71.3709 106.34L73.2609 105L75.1509 103.65L97.1509 87.91C98.3888 87.0159 99.3969 85.8409 100.092 84.4814C100.788 83.122 101.15 81.6169 101.151 80.0899V57.61L119.711 37.61C121.242 35.9358 122.069 33.7361 122.02 31.4681C121.971 29.2 121.05 27.038 119.449 25.4313C117.847 23.8246 115.688 22.8967 113.42 22.8406C111.152 22.7845 108.95 23.6044 107.271 25.1299L107.341 25.16ZM61.1009 24C62.0251 23.3373 63.1337 22.9809 64.2709 22.9809C65.4081 22.9809 66.5167 23.3373 67.4409 24L90.1609 40.1899L75.1609 53.32V49.38C75.1622 48.5426 74.9984 47.7132 74.6789 46.9392C74.3594 46.1652 73.8904 45.4618 73.2987 44.8692C72.7071 44.2766 72.0044 43.8065 71.2309 43.4858C70.4574 43.165 69.6283 42.9999 68.7909 43H34.4309L61.1009 24ZM71.3709 86.31C64.9009 89 56.5409 89.09 52.7009 87.59C52.4326 87.4863 52.1977 87.3114 52.0214 87.0841C51.8452 86.8568 51.7344 86.5856 51.7009 86.3C51.6598 86.0099 51.6986 85.7142 51.8132 85.4446C51.9277 85.175 52.1136 84.9417 52.3509 84.7699L56.2609 81.91C57.3479 81.1176 58.2088 80.0546 58.7578 78.8266C59.3069 77.5987 59.5252 76.2484 59.3909 74.91C59.1768 72.905 59.5229 70.8799 60.3909 69.0599C60.7007 68.3902 61.083 67.7564 61.5309 67.1699C61.8371 66.7576 62.1712 66.3666 62.5309 66C62.7809 65.75 63.0509 65.5099 63.3209 65.2799C65.2774 63.6668 67.7351 62.7863 70.2709 62.79C70.6409 62.79 71.0109 62.79 71.3709 62.79H71.5009C72.0963 62.8521 72.6852 62.9658 73.2609 63.13L73.4709 63.1899C73.8109 63.2906 74.1448 63.4108 74.4709 63.5499C74.7009 63.6399 74.9309 63.75 75.1509 63.86C75.3428 63.95 75.5297 64.0501 75.7109 64.16C76.5536 64.6673 77.3239 65.2863 78.0009 66C78.689 66.6785 79.2751 67.4532 79.7409 68.3C80.1322 68.9973 80.4282 69.7439 80.6209 70.5199C80.7951 71.1737 80.899 71.8442 80.9309 72.5199C81.0264 75.8455 79.9345 79.0963 77.8509 81.69C77.0797 82.6738 76.1624 83.5337 75.1309 84.2399C74.5293 84.6741 73.8977 85.065 73.2409 85.41C72.6332 85.7414 72.0091 86.0417 71.3709 86.31ZM31.4409 47.91C31.4474 47.574 31.4842 47.2393 31.5509 46.91C31.9461 46.8324 32.3482 46.7955 32.7509 46.7999H68.7509C69.4344 46.8026 70.0891 47.0753 70.5723 47.5585C71.0556 48.0418 71.3283 48.6965 71.3309 49.38V59.08C70.9709 59.08 70.6009 59.08 70.2309 59.08C68.297 59.0747 66.3812 59.4528 64.5944 60.1926C62.8075 60.9324 61.1851 62.0192 59.8209 63.3899C59.2177 64.0109 58.6659 64.6797 58.1709 65.3899H42.5609V58.59H65.1409V54.7299H31.3809L31.4409 47.91ZM31.3509 58.5099H38.7909V65.3099H31.2909L31.3509 58.5099ZM33.4909 84.83C32.7639 84.3255 32.1714 83.6508 31.7653 82.8646C31.3591 82.0784 31.1516 81.2048 31.1609 80.32L31.2509 69.0899H38.7909V88.5199L33.4909 84.83ZM67.3809 104C66.4625 104.649 65.3656 104.998 64.2409 104.998C63.1163 104.998 62.0193 104.649 61.1009 104L42.5609 91.16V69.0899H56.3009C55.6317 71.1011 55.4032 73.2327 55.6309 75.3399C55.691 76.018 55.572 76.6999 55.286 77.3176C55 77.9353 54.5568 78.4671 54.0009 78.86L50.1009 81.73C49.3329 82.3131 48.7338 83.0899 48.3648 83.9807C47.9958 84.8716 47.8702 85.8446 48.0009 86.8C48.1205 87.7573 48.4982 88.6642 49.0936 89.4234C49.689 90.1826 50.4797 90.7656 51.3809 91.11C53.9957 92.0031 56.7488 92.423 59.5109 92.3499C61.7277 92.346 63.9397 92.1452 66.1209 91.75C67.923 91.4339 69.6957 90.969 71.4209 90.36V101.19L67.3809 104ZM97.0609 80C97.0612 80.8666 96.8545 81.7207 96.4579 82.4913C96.0613 83.2619 95.4864 83.9265 94.7809 84.4299L75.1509 98.4299V88.6799C77.3518 87.5274 79.292 85.9344 80.8509 84C83.322 80.9584 84.7053 77.1781 84.7809 73.26C84.7809 72.96 84.7809 72.66 84.7809 72.37C87.0153 71.9053 89.0475 70.7511 90.5909 69.07L97.0909 62.07L97.0609 80ZM117.061 35L101.271 52L99.1409 54.2999L97.0609 56.54L87.8009 66.54C86.7831 67.6254 85.4567 68.3723 84.0009 68.68C83.3156 66.6708 82.1761 64.8468 80.6709 63.3499C79.1728 61.8443 77.364 60.684 75.3709 59.95C75.6897 58.5373 76.4288 57.2544 77.4909 56.27L93.3209 42.45L94.9209 41.0499L96.5309 39.6399L109.851 28C110.788 27.0518 112.064 26.5149 113.398 26.5074C114.731 26.4999 116.013 27.0224 116.961 27.96C117.909 28.8975 118.446 30.1733 118.453 31.5067C118.461 32.84 117.938 34.1218 117.001 35.07L117.061 35Z" fill="#0B7373"/>
</svg>
